<svg width="18" height="18" viewBox="0 0 18 18" fill="none" xmlns="http://www.w3.org/2000/svg">
<path d="M1.75 16.25L5.5 12.5M10.75 4.25L13.25 1.75M13.75 7.25L16.25 4.75M15.281 9.031L8.97 2.72C8.85869 2.60869 8.72267 2.52523 8.57301 2.47641C8.42335 2.42759 8.26428 2.4148 8.10875 2.43906C7.95321 2.46333 7.8056 2.52397 7.67792 2.61606C7.55025 2.70814 7.44611 2.82907 7.374 2.969L3.75 10L8 14.25L15.032 10.627C15.172 10.555 15.293 10.4509 15.3852 10.3233C15.4774 10.1957 15.5381 10.0481 15.5625 9.89252C15.5869 9.73697 15.5742 9.57788 15.5254 9.42817C15.4767 9.27846 15.3923 9.14238 15.281 9.031Z" stroke="black" stroke-width="1.5" stroke-linecap="square"/>
</svg>
