<svg width="16" height="16" viewBox="0 0 16 16" fill="none" xmlns="http://www.w3.org/2000/svg">
<path d="M8 15.25C8.95208 15.25 9.89484 15.0625 10.7745 14.6981C11.6541 14.3338 12.4533 13.7997 13.1265 13.1265C13.7997 12.4533 14.3338 11.6541 14.6981 10.7745C15.0625 9.89484 15.25 8.95208 15.25 8C15.25 7.04792 15.0625 6.10516 14.6981 5.22554C14.3338 4.34593 13.7997 3.5467 13.1265 2.87348C12.4533 2.20025 11.6541 1.66622 10.7745 1.30187C9.89484 0.937527 8.95208 0.75 8 0.75C6.07718 0.75 4.23311 1.51384 2.87348 2.87348C1.51384 4.23311 0.75 6.07718 0.75 8C0.75 9.92282 1.51384 11.7669 2.87348 13.1265C4.23311 14.4862 6.07718 15.25 8 15.25Z" stroke="black" stroke-width="1.5" stroke-linecap="round" stroke-linejoin="round"/>
<path d="M15 8.25H7.75V1" stroke="black" stroke-width="1.5" stroke-linecap="square"/>
</svg>
