<svg width="16" height="16" viewBox="0 0 16 16" fill="none" xmlns="http://www.w3.org/2000/svg">
<path d="M2.75 5.5V6.25C2.75 6.78043 2.96071 7.28914 3.33579 7.66421C3.71086 8.03929 4.21957 8.25 4.75 8.25H8M8 8.25H11.25C11.7804 8.25 12.2891 8.03929 12.6642 7.66421C13.0393 7.28914 13.25 6.78043 13.25 6.25V5.5M8 8.25V10.5M5.25 3C5.25 3.29547 5.1918 3.58806 5.07873 3.86104C4.96566 4.13402 4.79992 4.38206 4.59099 4.59099C4.38206 4.79992 4.13402 4.96566 3.86104 5.07873C3.58806 5.1918 3.29547 5.25 3 5.25C2.70453 5.25 2.41194 5.1918 2.13896 5.07873C1.86598 4.96566 1.61794 4.79992 1.40901 4.59099C1.20008 4.38206 1.03434 4.13402 0.921271 3.86104C0.808198 3.58806 0.75 3.29547 0.75 3C0.75 2.40326 0.987053 1.83097 1.40901 1.40901C1.83097 0.987053 2.40326 0.75 3 0.75C3.59674 0.75 4.16903 0.987053 4.59099 1.40901C5.01295 1.83097 5.25 2.40326 5.25 3ZM15.25 3C15.25 3.59674 15.0129 4.16903 14.591 4.59099C14.169 5.01295 13.5967 5.25 13 5.25C12.4033 5.25 11.831 5.01295 11.409 4.59099C10.9871 4.16903 10.75 3.59674 10.75 3C10.75 2.40326 10.9871 1.83097 11.409 1.40901C11.831 0.987053 12.4033 0.75 13 0.75C13.5967 0.75 14.169 0.987053 14.591 1.40901C15.0129 1.83097 15.25 2.40326 15.25 3ZM10.25 13C10.25 13.5967 10.0129 14.169 9.59099 14.591C9.16903 15.0129 8.59674 15.25 8 15.25C7.40326 15.25 6.83097 15.0129 6.40901 14.591C5.98705 14.169 5.75 13.5967 5.75 13C5.75 12.4033 5.98705 11.831 6.40901 11.409C6.83097 10.9871 7.40326 10.75 8 10.75C8.59674 10.75 9.16903 10.9871 9.59099 11.409C10.0129 11.831 10.25 12.4033 10.25 13Z" stroke="black" stroke-width="1.5" stroke-linecap="square" stroke-linejoin="round"/>
</svg>
