<svg width="16" height="16" viewBox="0 0 16 16" fill="none" xmlns="http://www.w3.org/2000/svg">
<path d="M14.25 13.25H1.75C1.48478 13.25 1.23043 13.1446 1.04289 12.9571C0.855357 12.7696 0.75 12.5152 0.75 12.25V8.75C0.75 8.21957 0.960714 7.71086 1.33579 7.33579C1.71086 6.96071 2.21957 6.75 2.75 6.75H13.25C13.7804 6.75 14.2891 6.96071 14.6642 7.33579C15.0393 7.71086 15.25 8.21957 15.25 8.75V12.25C15.25 12.5152 15.1446 12.7696 14.9571 12.9571C14.7696 13.1446 14.5152 13.25 14.25 13.25Z" stroke="black" stroke-width="1.5" stroke-linecap="square"/>
<path d="M4.5 10C4.5 10.1326 4.44732 10.2598 4.35355 10.3536C4.25979 10.4473 4.13261 10.5 4 10.5C3.86739 10.5 3.74021 10.4473 3.64645 10.3536C3.55268 10.2598 3.5 10.1326 3.5 10C3.5 9.86739 3.55268 9.74021 3.64645 9.64645C3.74021 9.55268 3.86739 9.5 4 9.5C4.13261 9.5 4.25979 9.55268 4.35355 9.64645C4.44732 9.74021 4.5 9.86739 4.5 10ZM12.5 10C12.5 10.1326 12.4473 10.2598 12.3536 10.3536C12.2598 10.4473 12.1326 10.5 12 10.5C11.8674 10.5 11.7402 10.4473 11.6464 10.3536C11.5527 10.2598 11.5 10.1326 11.5 10C11.5 9.86739 11.5527 9.74021 11.6464 9.64645C11.7402 9.55268 11.8674 9.5 12 9.5C12.1326 9.5 12.2598 9.55268 12.3536 9.64645C12.4473 9.74021 12.5 9.86739 12.5 10Z" stroke="black" stroke-linecap="square"/>
<path d="M2.75 13.75V15.25M13.25 13.75V15.25M14.25 6.75H1.75L2.471 2.421C2.54888 1.95401 2.7899 1.52979 3.15118 1.22381C3.51245 0.917837 3.97056 0.749942 4.444 0.75H11.556C12.0294 0.749942 12.4875 0.917837 12.8488 1.22381C13.2101 1.52979 13.4511 1.95401 13.529 2.421L14.25 6.75Z" stroke="black" stroke-width="1.5" stroke-linecap="square"/>
</svg>
