<svg width="19" height="16" viewBox="0 0 19 16" fill="none" xmlns="http://www.w3.org/2000/svg">
<path d="M10 11C11.6569 11 13 9.65685 13 8C13 6.34315 11.6569 5 10 5C8.34315 5 7 6.34315 7 8C7 9.65685 8.34315 11 10 11Z" stroke="black" stroke-width="2.5"/>
<path d="M16.105 5.76551C15.1942 3.27611 12.8044 1.49951 9.9994 1.49951C6.4096 1.49951 3.4996 4.40951 3.4996 7.99991C3.4996 11.5897 6.4096 14.4997 9.9994 14.4997C12.8044 14.4997 15.1942 12.7237 16.1056 10.2343M4 7.99991H0.000999451M19 7.99991H13" stroke="black" stroke-width="2.5"/>
</svg>
