<svg width="40" height="40" viewBox="0 0 40 40" fill="none" xmlns="http://www.w3.org/2000/svg">
<path d="M0 8C0 3.58172 3.58172 0 8 0H32C36.4183 0 40 3.58172 40 8V32C40 36.4183 36.4183 40 32 40H8C3.58172 40 0 36.4183 0 32V8Z" fill="#E1FDAE"/>
<path d="M14.75 17.5V18.25C14.75 18.7804 14.9607 19.2891 15.3358 19.6642C15.7109 20.0393 16.2196 20.25 16.75 20.25H20M20 20.25H23.25C23.7804 20.25 24.2891 20.0393 24.6642 19.6642C25.0393 19.2891 25.25 18.7804 25.25 18.25V17.5M20 20.25V22.5M17.25 15C17.25 15.2955 17.1918 15.5881 17.0787 15.861C16.9657 16.134 16.7999 16.3821 16.591 16.591C16.3821 16.7999 16.134 16.9657 15.861 17.0787C15.5881 17.1918 15.2955 17.25 15 17.25C14.7045 17.25 14.4119 17.1918 14.139 17.0787C13.866 16.9657 13.6179 16.7999 13.409 16.591C13.2001 16.3821 13.0343 16.134 12.9213 15.861C12.8082 15.5881 12.75 15.2955 12.75 15C12.75 14.4033 12.9871 13.831 13.409 13.409C13.831 12.9871 14.4033 12.75 15 12.75C15.5967 12.75 16.169 12.9871 16.591 13.409C17.0129 13.831 17.25 14.4033 17.25 15ZM27.25 15C27.25 15.5967 27.0129 16.169 26.591 16.591C26.169 17.0129 25.5967 17.25 25 17.25C24.4033 17.25 23.831 17.0129 23.409 16.591C22.9871 16.169 22.75 15.5967 22.75 15C22.75 14.4033 22.9871 13.831 23.409 13.409C23.831 12.9871 24.4033 12.75 25 12.75C25.5967 12.75 26.169 12.9871 26.591 13.409C27.0129 13.831 27.25 14.4033 27.25 15ZM22.25 25C22.25 25.5967 22.0129 26.169 21.591 26.591C21.169 27.0129 20.5967 27.25 20 27.25C19.4033 27.25 18.831 27.0129 18.409 26.591C17.9871 26.169 17.75 25.5967 17.75 25C17.75 24.4033 17.9871 23.831 18.409 23.409C18.831 22.9871 19.4033 22.75 20 22.75C20.5967 22.75 21.169 22.9871 21.591 23.409C22.0129 23.831 22.25 24.4033 22.25 25Z" stroke="black" stroke-width="1.5" stroke-linecap="square" stroke-linejoin="round"/>
</svg>
