<svg width="40" height="40" viewBox="0 0 40 40" fill="none" xmlns="http://www.w3.org/2000/svg">
<path d="M0 8C0 3.58172 3.58172 0 8 0H32C36.4183 0 40 3.58172 40 8V32C40 36.4183 36.4183 40 32 40H8C3.58172 40 0 36.4183 0 32V8Z" fill="#E1FDAE"/>
<path d="M26.25 25.25H13.75C13.4848 25.25 13.2304 25.1446 13.0429 24.9571C12.8554 24.7696 12.75 24.5152 12.75 24.25V20.75C12.75 20.2196 12.9607 19.7109 13.3358 19.3358C13.7109 18.9607 14.2196 18.75 14.75 18.75H25.25C25.7804 18.75 26.2891 18.9607 26.6642 19.3358C27.0393 19.7109 27.25 20.2196 27.25 20.75V24.25C27.25 24.5152 27.1446 24.7696 26.9571 24.9571C26.7696 25.1446 26.5152 25.25 26.25 25.25Z" stroke="black" stroke-width="1.5" stroke-linecap="square"/>
<path d="M16.5 22C16.5 22.1326 16.4473 22.2598 16.3536 22.3536C16.2598 22.4473 16.1326 22.5 16 22.5C15.8674 22.5 15.7402 22.4473 15.6464 22.3536C15.5527 22.2598 15.5 22.1326 15.5 22C15.5 21.8674 15.5527 21.7402 15.6464 21.6464C15.7402 21.5527 15.8674 21.5 16 21.5C16.1326 21.5 16.2598 21.5527 16.3536 21.6464C16.4473 21.7402 16.5 21.8674 16.5 22ZM24.5 22C24.5 22.1326 24.4473 22.2598 24.3536 22.3536C24.2598 22.4473 24.1326 22.5 24 22.5C23.8674 22.5 23.7402 22.4473 23.6464 22.3536C23.5527 22.2598 23.5 22.1326 23.5 22C23.5 21.8674 23.5527 21.7402 23.6464 21.6464C23.7402 21.5527 23.8674 21.5 24 21.5C24.1326 21.5 24.2598 21.5527 24.3536 21.6464C24.4473 21.7402 24.5 21.8674 24.5 22Z" stroke="black" stroke-linecap="square"/>
<path d="M14.75 25.75V27.25M25.25 25.75V27.25M26.25 18.75H13.75L14.471 14.421C14.5489 13.954 14.7899 13.5298 15.1512 13.2238C15.5125 12.9178 15.9706 12.7499 16.444 12.75H23.556C24.0294 12.7499 24.4875 12.9178 24.8488 13.2238C25.2101 13.5298 25.4511 13.954 25.529 14.421L26.25 18.75Z" stroke="black" stroke-width="1.5" stroke-linecap="square"/>
</svg>
