<svg width="24" height="24" viewBox="0 0 24 24" fill="none" xmlns="http://www.w3.org/2000/svg">
<path d="M-8 -4.76837e-07C-8 -4.41828 -4.41828 -8 0 -8H24C28.4183 -8 32 -4.41828 32 0V24C32 28.4183 28.4183 32 24 32H-4.76837e-07C-4.41828 32 -8 28.4183 -8 24V-4.76837e-07Z" fill="#E1FDAE"/>
<path d="M4.75 8.75L12 4.75L19.25 8.75V17.25C19.25 17.7804 19.0393 18.2891 18.6642 18.6642C18.2891 19.0393 17.7804 19.25 17.25 19.25H6.75C6.21957 19.25 5.71086 19.0393 5.33579 18.6642C4.96071 18.2891 4.75 17.7804 4.75 17.25V8.75Z" stroke="black" stroke-width="1.5" stroke-linecap="square"/>
<path d="M19 9L13.25 13.25H10.75L5 9" stroke="black" stroke-width="1.5" stroke-linecap="square"/>
</svg>
